Coordinates
version=1
nRows=17
nColumns=36
inDegrees=yes

Units are S.I. units (second, meters, Newtons, ...)
If the header above contains a line with 'inDegrees', this indicates whether rotational values are in degrees (yes) or radians (no).

endheader
time	pelvis_tilt	pelvis_list	pelvis_rotation	pelvis_tx	pelvis_ty	pelvis_tz	hip_flexion_r	hip_adduction_r	hip_rotation_r	knee_angle_r	knee_angle_r_beta	ankle_angle_r	subtalar_angle_r	mtp_angle_r	hip_flexion_l	hip_adduction_l	hip_rotation_l	knee_angle_l	knee_angle_l_beta	ankle_angle_l	subtalar_angle_l	mtp_angle_l	lumbar_extension	lumbar_bending	lumbar_rotation	arm_flex_r	arm_add_r	arm_rot_r	elbow_flex_r	pro_sup_r	arm_flex_l	arm_add_l	arm_rot_l	elbow_flex_l	pro_sup_l
     14.43333330	      0.55286622	     -2.83546634	    294.20295286	     -0.92112052	      1.02197299	      0.72111626	     -4.75505700	     -4.55141736	     10.65245670	     45.03062618	      0.78593269	     -4.55412980	      6.64972110	     -7.49999987	     15.55226192	      5.54455655	    -10.99081635	      9.69895134	      0.16927863	     -5.60033739	    -13.49591785	     -7.49999987	    -14.28978599	     -7.84791909	     12.78041171	     14.65664496	     -4.21486840	     27.29783651	     28.97419431	     77.20380909	      9.27935011	    -12.59556245	     51.21883816	     16.43135127	     62.94513081
     14.45000000	      1.06047487	     -2.90556958	    295.46676748	     -0.91191177	      1.02428953	      0.73339639	     -2.00521391	     -4.25075907	     11.77526740	     49.91257538	      0.87113878	     -8.90476573	      4.69334812	     -7.49999987	     14.18271121	      6.58835759	     -9.36286827	      9.61749608	      0.16785697	     -4.88076155	    -14.02010390	     -7.49999987	    -14.65901978	     -7.98580515	     11.60495732	     13.62882879	     -4.23734115	     27.76539890	     28.05293813	     76.00776183	     10.63193517	    -12.93838044	     51.59750616	     17.09322497	     62.57424816
     14.46666670	      1.17208351	     -2.84437174	    296.82184607	     -0.89903304	      1.02604838	      0.74479124	      1.29751508	     -3.47955513	     12.38929858	     54.27786721	      0.94732749	    -11.98096491	      2.58165463	     -7.49999987	     12.81181609	      7.40686706	     -7.96761697	      9.18718310	      0.16034659	     -4.09824876	    -14.01674927	     -7.49999987	    -14.76635000	     -7.80786942	     10.53240171	     12.83478873	     -4.32722803	     28.95894571	     26.41599299	     76.02258420	     12.14717978	    -13.22521258	     52.36902979	     17.65966005	     62.64834750
     14.48333330	      1.24682834	     -3.00966956	    298.42104167	     -0.87987381	      1.02782533	      0.75713702	      3.99890316	     -2.85725879	     12.42071938	     57.41340082	      1.00205288	    -13.79995520	      0.75938418	     -7.49999987	     11.02283665	      8.19840665	     -7.01399508	      8.78268933	      0.15328685	     -3.21576893	    -13.36470965	     -7.49999987	    -14.88496164	     -7.26720532	      9.16273881	     11.19661214	     -4.98629953	     29.39597688	     25.59786607	     75.93019234	     13.38033713	    -13.23307519	     52.47057460	     18.23054740	     62.66796653
     14.50000000	      1.12548376	     -3.16460234	    299.73165268	     -0.86739670	      1.02783486	      0.76809794	      6.84618505	     -2.17665099	     12.40222282	     59.84882118	      1.04455898	    -14.27226157	     -2.54211604	     -7.49999987	      9.54730031	      8.54311154	     -6.82567364	      8.60106401	      0.15011689	     -2.24192591	    -11.68844919	     -7.49999987	    -14.63635320	     -6.28155846	      7.38757796	      9.21194190	     -5.93892774	     29.88424565	     24.46384203	     75.60186964	     14.12562841	    -13.46307660	     52.51178448	     19.14415781	     62.83571587
     14.51666670	      1.00167797	     -3.30738383	    301.22589093	     -0.85322168	      1.02817277	      0.77924679	      9.34881272	     -1.71203608	     11.70485894	     61.32806882	      1.07037672	    -14.68288258	     -7.19222667	     -7.49999987	      8.07563896	      8.90470457	     -6.53249627	      8.39117265	      0.14645359	     -1.22128519	    -10.59583886	     -7.49999987	    -14.43013628	     -5.42788738	      5.75231956	      6.86504717	     -6.96203859	     29.55748013	     23.88296832	     75.15495639	     15.02657954	    -13.78406784	     51.68124780	     20.43060668	     62.95393481
     14.53333330	      0.20367355	     -3.25492943	    303.32281376	     -0.83640868	      1.03008331	      0.78947560	     12.12681997	      0.42142319	     10.69731956	     61.93231176	      1.08092275	     -4.66242551	      2.46416436	     -7.49999987	      6.91758688	      8.85980574	     -5.71337910	      7.92189465	      0.13826314	     -0.13603303	     -9.04355332	     -7.49999987	    -14.13477943	     -4.23210599	      4.28219889	      4.20780428	     -7.91680822	     28.25020775	     23.95630587	     74.24878243	     16.04173178	    -14.10846702	     49.93725857	     22.57170441	     63.09556849
     14.55000000	     -0.34075889	     -3.60706898	    306.24994514	     -0.81022248	      1.03351742	      0.80019061	     12.99329216	      1.09568459	     10.97386877	     61.53261165	      1.07394667	      1.97594869	      6.01428259	     -7.49999987	      5.26373223	      8.90585816	     -4.01201861	      7.85627678	      0.13711790	      1.34007928	     -7.60774886	     -7.49999987	    -14.13091907	     -2.91366988	      2.02419672	      2.11060955	     -7.67870399	     22.42547875	     25.97357954	     77.85070316	     14.77892665	    -13.67992527	     35.73298772	     27.25402726	     77.23529233
     14.56666670	     -0.39094972	     -3.57589657	    309.48324842	     -0.78622060	      1.03359985	      0.80914775	     13.00195754	     -0.86222991	     12.52432122	     60.02702967	      1.04766931	     -2.83770164	     -7.73237049	     -7.49999987	      2.98742689	      9.82774058	     -2.39798844	      7.02326925	      0.12257917	      2.27447819	     -6.35829711	     -7.49999987	    -13.09126124	     -2.25122264	      0.12165199	      0.93781918	     -7.19293579	     21.99505940	     27.73731580	     77.80928425	     15.50945048	    -13.16815112	     35.08664219	     28.87390599	     77.23044389
     14.58333330	     -0.73469571	     -3.61109031	    312.92211357	     -0.76851243	      1.02982707	      0.81874051	     13.61318940	     -2.48355381	     13.31831872	     56.64482375	      0.98863868	      0.44172485	    -17.37443555	     -7.49999987	      0.60311628	     10.39708235	     -0.09480430	      5.56442371	      0.09711751	      3.62391860	     -5.53480522	     -7.49999987	    -12.07704271	     -1.57794045	     -1.33686880	     -0.67880322	     -6.63471801	     21.69327805	     28.90942377	     78.25673763	     16.63663039	    -12.15928381	     34.32957339	     30.28162881	     77.61852419
     14.60000000	     -0.83061822	     -3.69978725	    316.17748697	     -0.74942804	      1.02143849	      0.82773529	     13.39447894	     -4.03780318	     13.26756829	     52.65761137	      0.91904869	     -3.29020794	    -25.54698671	     -7.49999987	     -1.86556004	     10.67096254	      2.29217508	      4.43437049	      0.07739437	      4.47454941	     -4.98482406	     -7.49999987	    -11.34852773	     -1.27061402	     -3.01699491	     -2.10232566	     -5.54911487	     20.99367828	     31.43295163	     78.92557105	     16.85989656	    -11.55628966	     32.55809157	     33.19480878	     78.19296554
     14.61666670	     -1.54067015	     -3.22932227	    319.88156627	     -0.73416720	      1.01345808	      0.83663925	     14.71052840	     -4.53437616	     12.59703993	     48.87575057	      0.85304277	      0.78045148	    -25.53686955	     -7.49999987	     -3.34199040	     10.62016221	      5.00830718	      3.40552068	      0.05943755	      5.64119734	     -3.50217173	     -7.49999987	    -10.59301372	     -1.17592174	     -4.85371074	     -2.94042545	     -3.58977846	     19.42019125	     34.78397936	     84.17667066	     15.98260594	    -10.39436934	     24.33736292	     38.58527132	     86.44353251
     14.63333330	     -2.53823136	     -3.01870828	    323.73833044	     -0.72199505	      1.00919039	      0.84602579	     16.78218860	     -3.48542820	     11.48587420	     44.74443796	      0.78093776	      9.09868013	    -19.54922659	     -7.49999987	     -4.18353108	      9.72567469	      7.84174428	      2.83374253	      0.04945814	      6.48324728	     -1.93237739	     -7.49999987	    -10.11372192	     -1.29418931	     -5.44389593	     -2.26673020	      0.24780859	     21.35702686	     39.11607456	     82.30744787	     17.55763025	     -9.53057686	     24.24956467	     41.73369829	     84.20510257
     14.65000000	     -4.09465534	     -2.58613856	    327.19726660	     -0.71123818	      1.00716123	      0.85273342	     19.81861377	     -2.09787789	     10.45855786	     40.12410447	      0.70029773	     16.76247517	    -11.08468958	     -7.49999987	     -3.76185246	      8.63639493	     10.29381571	      2.74671020	      0.04793914	      7.19346616	     -0.54016170	     -7.49999987	     -9.27876779	     -1.30836622	     -5.69897199	     -2.17662434	      2.17327418	     21.63558495	     41.26044935	     81.03444502	     18.40209724	     -7.80313588	     23.38145104	     44.71610779	     82.88830935
     14.66666670	     -5.40495989	     -2.32126302	    330.23836094	     -0.69629721	      1.00631650	      0.85819472	     22.54479315	     -1.15345391	      9.59089001	     35.33725832	      0.61675151	     20.71496950	     -4.23983017	     -7.49999987	     -3.32995442	      7.76871440	     12.19741335	      3.22154214	      0.05622652	      8.08570710	      0.50098994	     -7.49999987	     -8.86706331	     -1.25398907	     -5.81304656	     -1.52915259	      4.04405951	     20.38789348	     41.80466710	     81.16096654	     19.30412127	     -5.99665794	     22.09605102	     47.30914433	     83.56633330
     14.68333330	     -6.79582943	     -2.25125538	    332.23237369	     -0.68849963	      1.00491531	      0.86500738	     25.73091229	      0.06684198	      7.93827877	     30.68729932	      0.53559441	     20.71936232	     -0.45624152	     -7.49999987	     -2.56803089	      6.86357192	     13.13360505	      3.89984973	      0.06806522	      9.19157118	      1.29834439	     -7.49999987	     -8.75572584	     -1.02116715	     -5.53408818	     -0.58445052	      5.74342836	     18.09890429	     42.92104335	     85.55475328	     19.95768243	     -4.20534252	     18.95049476	     50.38048717	     91.80664007
     14.70000000	     -8.09032465	     -2.43757926	    333.18041956	     -0.67559972	      1.00562387	      0.87482294	     28.54997871	      1.61247024	      4.64157371	     25.31179490	      0.44177416	     17.98309036	      2.99353629	     -7.49999987	     -2.10960689	      5.87660837	     13.08618718	      4.46070131	      0.07785392	     10.01873937	      2.42763787	     -7.49999987	     -8.48121466	     -0.60608719	     -4.59624513	      0.63301914	      7.09285487	     17.19523573	     42.30553264	     85.21367242	     20.59535901	     -2.84580847	     18.48253210	     51.79546204	     91.61063995
